<?xml version="1.0" standalone="no"?>
<!DOCTYPE svg PUBLIC "-//W3C//DTD SVG 20010904//EN"
 "http://www.w3.org/TR/2001/REC-SVG-20010904/DTD/svg10.dtd">
<svg version="1.0" xmlns="http://www.w3.org/2000/svg"
 width="300.000000pt" height="117.000000pt" viewBox="0 0 300.000000 117.000000"
 preserveAspectRatio="xMidYMid meet">
<metadata>
Created by potrace 1.10, written by Peter Selinger 2001-2011
</metadata>
<g transform="translate(0.000000,117.000000) scale(0.100000,-0.100000)"
fill="#000000" stroke="none">
<path d="M1330 1129 c-78 -24 -149 -111 -150 -184 0 -33 43 -95 57 -81 4 5 2
11 -5 13 -7 3 -19 18 -28 35 -14 26 -14 34 1 78 19 56 86 115 143 126 95 18
408 -28 445 -65 12 -12 21 -39 24 -78 5 -53 2 -65 -22 -104 -57 -92 -92 -115
-226 -149 -74 -19 -105 -21 -251 -18 -104 2 -172 8 -179 15 -8 8 -2 27 21 72
18 33 30 65 28 71 -2 6 -19 -20 -38 -59 -18 -39 -37 -71 -42 -71 -4 0 -8 -4
-8 -10 0 -37 350 -50 473 -17 132 35 182 69 235 158 17 28 22 52 22 105 -1
102 -15 114 -167 144 -122 23 -286 33 -333 19z"/>
<path d="M1360 950 c0 -33 4 -60 10 -60 6 0 10 11 10 25 0 20 5 25 25 25 14 0
25 4 25 9 0 4 -11 6 -25 3 -22 -4 -25 -1 -25 27 0 17 -4 31 -10 31 -6 0 -10
-27 -10 -60z"/>
<path d="M1650 950 c0 -33 4 -60 10 -60 6 0 10 27 10 60 0 33 -4 60 -10 60 -6
0 -10 -27 -10 -60z"/>
<path d="M1448 935 c-1 -36 0 -65 5 -65 4 0 7 29 7 65 0 36 -2 65 -4 65 -2 0
-6 -29 -8 -65z"/>
<path d="M1520 890 c0 -16 5 -30 10 -30 6 0 10 14 10 30 0 17 -4 30 -10 30 -5
0 -10 -13 -10 -30z"/>
<path d="M797 883 c-4 -3 -7 -13 -7 -22 0 -12 3 -12 12 -3 29 29 123 7 176
-42 58 -52 70 -139 26 -183 -23 -23 -31 -25 -89 -21 -74 5 -101 23 -111 74 -9
47 14 79 66 92 24 6 49 8 56 5 8 -3 14 0 14 7 0 18 -89 5 -120 -19 -17 -12
-26 -29 -28 -56 -5 -60 13 -92 67 -111 25 -10 47 -18 49 -20 2 -1 0 -13 -4
-28 -6 -25 -8 -26 -85 -26 -46 0 -79 -4 -79 -10 0 -6 33 -10 79 -10 l79 0 -18
-81 c-11 -48 -31 -102 -50 -131 -17 -28 -29 -55 -27 -61 2 -6 17 12 33 41 16
29 31 52 34 52 3 0 20 -43 39 -94 34 -95 72 -158 87 -143 4 4 0 13 -9 20 -24
17 -97 202 -97 245 0 20 5 62 12 94 l12 59 68 -7 c46 -4 68 -3 68 4 0 7 -26
12 -62 14 -62 3 -63 3 -63 32 0 26 5 31 35 39 138 35 105 228 -49 282 -45 16
-103 20 -114 8z"/>
</g>
</svg>
