<?xml version="1.0" standalone="no"?>
<!DOCTYPE svg PUBLIC "-//W3C//DTD SVG 20010904//EN"
 "http://www.w3.org/TR/2001/REC-SVG-20010904/DTD/svg10.dtd">
<svg version="1.0" xmlns="http://www.w3.org/2000/svg"
 width="300.000000pt" height="117.000000pt" viewBox="0 0 300.000000 117.000000"
 preserveAspectRatio="xMidYMid meet">
<metadata>
Created by potrace 1.10, written by Peter Selinger 2001-2011
</metadata>
<g transform="translate(0.000000,117.000000) scale(0.100000,-0.100000)"
fill="#000000" stroke="none">
<path d="M1330 1129 c-78 -24 -149 -111 -150 -184 0 -33 43 -95 57 -81 4 5 2
11 -5 13 -7 3 -19 18 -28 35 -14 26 -14 34 1 78 19 56 86 115 143 126 95 18
408 -28 445 -65 12 -12 21 -39 24 -78 5 -53 2 -65 -22 -104 -57 -92 -92 -115
-226 -149 -74 -19 -105 -21 -251 -18 -104 2 -172 8 -179 15 -8 8 -2 27 21 72
18 33 30 65 28 71 -2 6 -19 -20 -38 -59 -18 -39 -37 -71 -42 -71 -4 0 -8 -4
-8 -10 0 -37 350 -50 473 -17 132 35 182 69 235 158 17 28 22 52 22 105 -1
102 -15 114 -167 144 -122 23 -286 33 -333 19z"/>
<path d="M1360 950 c0 -33 4 -60 10 -60 6 0 10 11 10 25 0 20 5 25 25 25 14 0
25 4 25 9 0 4 -11 6 -25 3 -22 -4 -25 -1 -25 27 0 17 -4 31 -10 31 -6 0 -10
-27 -10 -60z"/>
<path d="M1650 950 c0 -33 4 -60 10 -60 6 0 10 27 10 60 0 33 -4 60 -10 60 -6
0 -10 -27 -10 -60z"/>
<path d="M1448 935 c-1 -36 0 -65 5 -65 4 0 7 29 7 65 0 36 -2 65 -4 65 -2 0
-6 -29 -8 -65z"/>
<path d="M97 943 c-16 -15 -4 -19 46 -15 65 5 112 -16 155 -70 52 -66 48 -148
-7 -178 -28 -14 -96 -12 -136 4 -37 16 -49 41 -43 97 3 38 39 62 95 63 18 1
33 5 33 10 0 5 -24 6 -52 3 -65 -8 -98 -40 -98 -94 0 -51 31 -88 84 -102 42
-10 44 -12 37 -38 -7 -27 -10 -28 -84 -31 -42 -2 -77 -7 -77 -12 0 -6 30 -8
75 -5 86 6 82 13 56 -96 -11 -47 -30 -94 -50 -123 -18 -26 -30 -50 -27 -53 7
-8 31 21 48 60 7 15 16 27 19 27 3 0 22 -44 43 -97 40 -107 67 -150 85 -139 6
4 9 12 5 17 -3 5 -9 7 -14 4 -4 -3 -23 32 -43 78 -62 147 -62 148 -48 234 7
43 15 81 17 84 2 3 28 1 58 -4 29 -6 62 -6 72 -2 14 6 -1 11 -49 16 -38 4 -71
10 -74 13 -3 3 -3 16 1 29 4 17 15 26 37 31 16 3 44 19 60 35 87 87 -30 261
-177 261 -22 0 -44 -3 -47 -7z"/>
<path d="M1520 890 c0 -16 5 -30 10 -30 6 0 10 14 10 30 0 17 -4 30 -10 30 -5
0 -10 -13 -10 -30z"/>
<path d="M456 887 c-13 -10 -15 -16 -8 -21 7 -4 12 -2 12 5 0 18 102 5 137
-18 75 -48 113 -137 83 -194 -32 -60 -161 -60 -207 0 -19 25 -16 85 6 105 10
9 41 19 69 23 28 3 49 10 46 14 -7 12 -31 11 -76 -1 -54 -15 -68 -34 -68 -91
0 -60 28 -94 84 -105 27 -5 36 -10 32 -21 -3 -8 -6 -21 -6 -29 0 -11 -18 -14
-80 -14 -47 0 -80 -4 -80 -10 0 -6 32 -10 75 -10 53 0 75 -4 75 -13 0 -46 -33
-153 -59 -194 -17 -26 -31 -51 -31 -55 0 -19 17 -2 41 39 l26 44 38 -94 c47
-121 73 -163 87 -149 8 8 5 16 -10 29 -12 10 -40 65 -62 123 -44 109 -43 105
-19 222 l10 47 71 -6 c45 -4 69 -3 65 4 -3 5 -31 10 -62 11 -69 2 -75 5 -66
39 5 20 16 29 39 34 93 19 117 118 50 208 -50 69 -167 112 -212 78z"/>
<path d="M797 883 c-4 -3 -7 -13 -7 -22 0 -12 3 -12 12 -3 29 29 123 7 176
-42 58 -52 70 -139 26 -183 -23 -23 -31 -25 -89 -21 -74 5 -101 23 -111 74 -9
47 14 79 66 92 24 6 49 8 56 5 8 -3 14 0 14 7 0 18 -89 5 -120 -19 -17 -12
-26 -29 -28 -56 -5 -60 13 -92 67 -111 25 -10 47 -18 49 -20 2 -1 0 -13 -4
-28 -6 -25 -9 -26 -75 -26 -39 0 -69 -4 -69 -10 0 -6 30 -10 69 -10 l69 0 -18
-81 c-11 -48 -31 -102 -50 -131 -17 -28 -29 -55 -27 -61 2 -6 17 12 33 41 16
29 31 52 34 52 3 0 20 -43 39 -94 34 -95 72 -158 87 -143 4 4 0 13 -9 20 -24
17 -97 202 -97 245 0 20 5 62 12 94 l12 59 68 -7 c46 -4 68 -3 68 4 0 7 -26
12 -62 14 -62 3 -63 3 -63 32 0 26 5 31 35 39 138 35 105 228 -49 282 -45 16
-103 20 -114 8z"/>
</g>
</svg>
